<svg width="36" height="36" viewBox="0 0 36 36" fill="none" xmlns="http://www.w3.org/2000/svg">
<g clip-path="url(#clip0_316_382)">
<rect width="36" height="36" rx="12" fill="#DDDDDD"/>
<path d="M28.0433 29.3333C28.0433 24.8183 23.5517 21.1667 18.0217 21.1667C12.4917 21.1667 8 24.8183 8 29.3333M18.0217 17.6667C19.5688 17.6667 21.0525 17.0521 22.1465 15.9581C23.2404 14.8642 23.855 13.3804 23.855 11.8333C23.855 10.2862 23.2404 8.80251 22.1465 7.70854C21.0525 6.61458 19.5688 6 18.0217 6C16.4746 6 14.9908 6.61458 13.8969 7.70854C12.8029 8.80251 12.1883 10.2862 12.1883 11.8333C12.1883 13.3804 12.8029 14.8642 13.8969 15.9581C14.9908 17.0521 16.4746 17.6667 18.0217 17.6667Z" stroke="#999999" stroke-width="1.5" stroke-linecap="round" stroke-linejoin="round"/>
</g>
<defs>
<clipPath id="clip0_316_382">
<rect width="36" height="36" rx="12" fill="white"/>
</clipPath>
</defs>
</svg>
